# This file uses centimeters as units for non-parametric coordinates.

mtllib Ala_1.mtl
g default
v -2.295937 2.558613 -0.329790
v -2.209187 2.452358 -0.465761
v -4.388239 2.531317 -0.480238
v -4.342333 2.439543 -0.232625
v -3.922031 2.475801 0.382548
v -3.528534 2.577991 0.807264
v -4.577213 2.441296 -0.521778
v -4.600832 2.490062 -0.781511
v -2.685166 2.575039 -0.283991
v -4.360678 2.488643 -0.187030
v -3.822491 2.626884 -0.497231
v -3.389120 2.529392 -0.393413
v -3.146613 2.590709 -0.388369
v -2.906416 2.526683 -0.279972
v -4.470689 2.505110 -0.983215
v -4.185594 2.513432 -0.863142
v -4.333581 2.548795 -0.965031
v -3.794125 2.528844 -0.617336
v -3.526900 2.595063 -0.576506
v -3.036007 2.633392 -0.057942
v -3.394805 2.648313 0.080725
v -2.062263 2.504247 -0.414686
v -3.446731 2.637986 -0.265897
v -2.535066 2.476493 -0.358737
v -3.869594 2.596864 -0.721012
v -4.102916 2.593638 -0.759466
v -2.168549 2.574153 0.007793
v -2.551730 2.619465 0.159864
v -2.942331 2.485047 0.669437
v -3.135662 2.505009 0.293404
v -4.365140 2.563459 -0.757098
v -3.658195 2.492914 0.001036
v -3.526798 2.486257 0.384015
v -4.121829 2.609422 -0.473247
v -2.634734 2.600938 1.059296
v -3.058559 2.549773 1.124626
v -4.420710 2.480729 -0.779912
v -4.103464 2.596731 -0.159161
v -3.286584 2.515230 -0.077324
v -3.679590 2.605995 0.503879
v -4.398164 2.460922 -0.520195
v -2.932029 2.645090 0.318534
v -3.320539 2.641482 0.434367
v -3.730673 2.509395 -0.324745
v -2.413803 2.624966 0.570149
v -3.197617 2.624032 0.780295
v -2.562041 2.456395 0.484100
v -2.789310 2.634686 0.704510
v -2.711514 2.449681 1.021465
v -4.115308 2.492490 -0.577512
v -2.382421 2.440694 -0.021450
v -3.783402 2.637970 -0.189049
v -3.991967 2.461691 0.067771
v -4.070485 2.472337 -0.272775
v -4.073986 2.558804 0.149987
v -3.317976 2.492491 0.797636
v -3.749189 2.626955 0.146465
v -4.287324 2.429599 0.040830
v -2.716886 2.502705 0.108088
v -2.618328 2.526482 -0.649919
v -2.341623 2.533315 -0.589189
v -2.674066 2.636925 0.442521
v -2.917800 2.615732 0.929068
v -3.017893 2.481160 0.928761
v -4.349048 2.502309 -0.918121
v -4.460687 2.542136 -0.880536
v -3.442620 2.621116 0.634658
v -2.421261 2.484856 -0.559321
v -4.178296 2.452873 -0.094600
v -4.398628 2.416167 -0.084164
v -3.718999 2.594943 -0.669221
v -3.965011 2.530940 -0.777277
v -4.522642 2.462200 -0.652005
v -4.521080 2.484200 -0.848633
v -3.250513 2.637633 -0.154901
v -2.948452 2.584002 -0.318095
v -2.481340 2.559868 -0.456244
v -2.775747 2.516259 -0.479700
v -4.486321 2.512697 -0.642592
v -3.658532 2.493684 0.628110
v -3.790405 2.474091 0.205565
v -2.201374 2.520669 -0.506246
v -2.082498 2.534960 -0.235820
v -3.174437 2.648673 0.201386
v -3.545788 2.635850 0.297038
v -3.874653 2.485823 -0.138235
v -3.595594 2.644790 -0.051461
v -3.638348 2.634629 -0.384701
v -3.928663 2.503070 -0.447669
v -3.168609 2.529474 -0.312029
v -4.253665 2.586615 -0.621233
v -4.222109 2.571750 -0.879499
v -3.891588 2.586894 0.328673
v -3.332234 2.567131 0.972651
v -4.256780 2.566505 -0.322330
v -3.936081 2.614595 -0.004493
v -2.520382 2.624635 0.828383
v -2.296134 2.608148 0.288208
v -3.522125 2.512237 -0.198971
v -2.474377 2.453545 0.228925
v -2.854537 2.494428 0.408609
v -3.983397 2.613406 -0.614507
v -3.962086 2.626833 -0.327576
v -4.249845 2.463174 -0.404576
v -4.535588 2.415010 -0.340334
v -3.019284 2.518711 0.022968
v -2.639850 2.497229 -0.125032
v -2.423210 2.588552 -0.115698
v -2.796594 2.625549 0.035595
v -3.410607 2.499100 0.153986
v -3.593673 2.529311 -0.494999
v -3.337776 2.592765 -0.484361
v -2.748683 2.520299 1.249100
v -3.066295 2.641479 0.566585
v -3.234841 2.494956 0.543119
v -2.643084 2.452474 0.750432
v -2.296328 2.429245 -0.257110
v -4.225152 2.525403 -0.020865
v -4.127966 2.453477 0.199906
v -4.289523 2.480255 -0.690459
v -1.798568 2.466954 -0.195061
v -1.972965 2.420928 -0.390940
v -2.048029 2.380450 -0.177678
v -2.127869 2.384754 0.059550
v -2.204685 2.394721 0.302138
v -2.276283 2.399897 0.551575
v -2.339114 2.402568 0.816904
v -2.412173 2.413347 1.083529
v -2.452627 2.491177 1.312951
v -2.389710 2.589996 1.150667
v -2.269423 2.613925 0.929985
v -2.159239 2.611267 0.685543
v -2.030733 2.590600 0.417925
v -1.908085 2.544630 0.125681
vt 0.023045 0.905144
vt 0.031165 0.892507
vt 0.025498 0.879801
vt 0.034937 0.891589
vt 0.060340 0.651228
vt 0.065729 0.661753
vt 0.048998 0.680128
vt 0.068281 0.666401
vt 0.103877 0.877405
vt 0.114625 0.894188
vt 0.098985 0.899241
vt 0.087167 0.888849
vt 0.198211 0.669116
vt 0.194871 0.661233
vt 0.172333 0.672470
vt 0.179001 0.681569
vt 0.659511 0.370741
vt 0.686095 0.383044
vt 0.658965 0.400794
vt 0.664144 0.406503
vt 0.036561 0.924825
vt 0.031328 0.911693
vt 0.037600 0.914807
vt 0.711158 0.390842
vt 0.708040 0.375701
vt 0.715962 0.370741
vt 0.717472 0.392943
vt 0.159959 0.693588
vt 0.151762 0.685675
vt 0.131899 0.701045
vt 0.140606 0.705704
vt 0.163278 0.844003
vt 0.148293 0.821012
vt 0.171179 0.809239
vt 0.185555 0.834542
vt 0.295953 0.867034
vt 0.286680 0.869351
vt 0.284578 0.851899
vt 0.314065 0.847921
vt 0.123001 0.866425
vt 0.142900 0.854833
vt 0.154216 0.876150
vt 0.134575 0.885141
vt 0.222506 0.654770
vt 0.239066 0.674544
vt 0.263251 0.658854
vt 0.249021 0.635157
vt 0.089077 0.904731
vt 0.074755 0.902993
vt 0.249195 0.840178
vt 0.235847 0.813290
vt 0.262392 0.800767
vt 0.275641 0.828128
vt 0.302691 0.816625
vt 0.278018 0.678915
vt 0.299496 0.666478
vt 0.287478 0.645247
vt 0.176735 0.570841
vt 0.190572 0.596309
vt 0.219158 0.580763
vt 0.206395 0.553978
vt 0.045123 0.875748
vt 0.059099 0.889505
vt 0.047522 0.902762
vt 0.162960 0.614365
vt 0.147558 0.591193
vt 0.121663 0.613278
vt 0.138450 0.633546
vt 0.072790 0.875065
vt 0.197831 0.738235
vt 0.183213 0.719154
vt 0.215394 0.707008
vt 0.227228 0.725528
vt 0.064249 0.747907
vt 0.076420 0.739555
vt 0.066968 0.725654
vt 0.057119 0.734145
vt 0.243158 0.873407
vt 0.221990 0.856599
vt 0.262412 0.861068
vt 0.062060 0.830925
vt 0.074698 0.844419
vt 0.058776 0.860340
vt 0.047985 0.847138
vt 0.062376 0.914705
vt 0.050800 0.923051
vt 0.313014 0.633895
vt 0.323800 0.655758
vt 0.206517 0.623787
vt 0.179217 0.637583
vt 0.093540 0.791562
vt 0.120905 0.767601
vt 0.118718 0.779723
vt 0.096702 0.796819
vt 0.054411 0.713202
vt 0.066024 0.697705
vt 0.046890 0.699953
vt 0.156006 0.786506
vt 0.182409 0.773605
vt 0.196353 0.797808
vt 0.210418 0.825416
vt 0.223143 0.785710
vt 0.134906 0.669117
vt 0.115314 0.684521
vt 0.194648 0.859926
vt 0.239103 0.748060
vt 0.265166 0.738146
vt 0.276608 0.761998
vt 0.250172 0.773257
vt 0.134405 0.750120
vt 0.154791 0.733983
vt 0.168771 0.752752
vt 0.143327 0.766963
vt 0.279172 0.558806
vt 0.269022 0.531251
vt 0.237362 0.541868
vt 0.249474 0.569318
vt 0.211174 0.760147
vt 0.257760 0.503676
vt 0.226539 0.513769
vt 0.079847 0.714594
vt 0.093196 0.731796
vt 0.115685 0.720080
vt 0.097024 0.700530
vt 0.301407 0.609533
vt 0.275222 0.621125
vt 0.089380 0.860852
vt 0.092081 0.829327
vt 0.107937 0.847335
vt 0.080397 0.683657
vt 0.101881 0.630308
vt 0.105295 0.595940
vt 0.085624 0.617802
vt 0.084046 0.649782
vt 0.097882 0.667524
vt 0.077759 0.814254
vt 0.164552 0.544674
vt 0.194961 0.527210
vt 0.188079 0.506803
vt 0.160766 0.526183
vt 0.029821 0.862096
vt 0.111490 0.814597
vt 0.132613 0.799906
vt 0.127441 0.833910
vt 0.055603 0.824905
vt 0.072153 0.809383
vt 0.117093 0.650907
vt 0.155591 0.653287
vt 0.252674 0.716613
vt 0.246140 0.700778
vt 0.237767 0.611201
vt 0.289954 0.788110
vt 0.262149 0.595502
vt 0.290055 0.584565
vt 0.070632 0.636611
vt 0.044044 0.837101
vt 0.066168 0.913109
vt 0.258106 0.690862
vt 0.130310 0.566702
vt 0.250468 0.479689
vt 0.219621 0.489934
vt 0.640358 0.401766
vt 0.642589 0.382870
vt 0.653906 0.370741
vt 0.649637 0.402827
vt 0.174068 0.866783
vt 0.257668 0.886378
vt 0.272232 0.878285
vt 0.249397 0.883464
vt 0.228931 0.892304
vt 0.141903 0.546093
vt 0.218502 0.659323
vt 0.212583 0.875695
vt 0.047719 0.727916
vt 0.125165 0.712974
vt 0.286923 0.681174
vt 0.300855 0.670703
vt 0.717092 0.409466
vt 0.712063 0.408107
vn -0.804290 0.594001 -0.016726
vn -0.094785 -0.991925 -0.084265
vn -0.978459 -0.061035 0.197214
vn -0.398817 0.908188 0.127039
vn -0.511278 -0.773894 0.373742
vn -0.530544 0.813736 0.237396
vn -0.969486 -0.021466 0.244206
vn 0.072674 -0.996409 -0.043439
vn -0.000438 0.996266 -0.086337
vn 0.310037 0.733252 -0.605160
vn 0.255289 0.779035 -0.572653
vn -0.033802 0.990920 -0.130135
vn 0.199405 0.858644 -0.472195
vn 0.056424 -0.984078 -0.168544
vn 0.094776 -0.976429 -0.193916
vn 0.267972 0.795508 -0.543469
vn 0.007344 0.988811 -0.148994
vn -0.484115 -0.761183 -0.431547
vn -0.077670 -0.990130 -0.116659
vn 0.089846 0.939151 -0.331546
vn -0.114297 -0.879153 -0.462629
vn -0.234703 -0.932175 -0.275616
vn -0.305470 0.945565 -0.112230
vn -0.003534 0.917485 -0.397755
vn 0.049006 0.933053 -0.356385
vn 0.259778 -0.889524 -0.375849
vn 0.140094 -0.933157 -0.331047
vn 0.293879 0.754474 -0.586860
vn 0.122718 -0.968924 -0.214772
vn 0.159460 -0.961410 -0.224196
vn 0.051913 0.994559 -0.090316
vn -0.011025 0.999938 -0.001710
vn 0.010312 0.999912 -0.008362
vn 0.056043 0.994096 -0.092906
vn 0.415506 -0.371085 -0.830452
vn 0.358026 0.825161 -0.436952
vn 0.214109 0.964746 -0.153043
vn 0.252919 0.951852 -0.173231
vn 0.026726 0.995528 -0.090607
vn 0.042553 0.995032 -0.090007
vn -0.145274 -0.987403 -0.062689
vn -0.140498 -0.989883 -0.019797
vn 0.233414 -0.880320 -0.412983
vn 0.017404 0.961413 -0.274557
vn 0.071322 0.992983 -0.094333
vn 0.062538 0.995755 -0.067538
vn 0.088596 0.994444 -0.056858
vn 0.138879 0.985758 -0.094841
vn 0.167061 0.980450 -0.103963
vn -0.076743 -0.932442 -0.353076
vn -0.023730 -0.947193 -0.319785
vn -0.158254 -0.983758 -0.084710
vn 0.000376 -0.999833 -0.018255
vn 0.006942 -0.999103 -0.041763
vn -0.068098 -0.996203 -0.054251
vn -0.060127 -0.997404 -0.039618
vn -0.390925 0.910676 0.133589
vn -0.203973 0.978963 0.005179
vn -0.218293 0.975859 0.006893
vn 0.046407 -0.998126 -0.039876
vn 0.031210 -0.999511 -0.001787
vn 0.054569 -0.998499 -0.004662
vn 0.063136 -0.996678 -0.051449
vn -0.165097 0.986258 0.006258
vn -0.040886 0.981764 0.185657
vn -0.413729 0.217036 0.884152
vn -0.353138 -0.094621 0.930774
vn -0.029707 0.971263 0.236148
vn 0.051822 -0.992768 -0.108289
vn 0.001306 0.987343 -0.158596
vn 0.101249 0.989647 -0.101725
vn -0.455231 0.849689 0.266070
vn -0.250127 0.963002 0.100316
vn -0.344448 0.931878 0.113841
vn -0.151231 -0.982760 -0.106354
vn -0.014020 -0.999088 -0.040327
vn 0.031614 -0.998445 -0.045916
vn -0.346968 -0.829329 0.437981
vn -0.310233 -0.895374 0.319469
vn -0.318858 0.904693 0.282595
vn -0.367766 0.871599 0.324136
vn 0.107230 -0.989370 -0.098234
vn -0.038275 0.998274 0.044554
vn -0.008215 0.998954 0.044980
vn 0.027434 0.999556 -0.011629
vn 0.053333 0.994697 -0.087936
vn 0.040909 0.999111 -0.010154
vn 0.067907 -0.995149 -0.071188
vn 0.094575 -0.992101 -0.082406
vn 0.020038 0.998170 0.057060
vn 0.024352 0.998179 0.055186
vn 0.060474 0.998097 -0.012027
vn 0.053764 0.998505 -0.009849
vn -0.587164 0.331913 0.738290
vn -0.461069 0.349866 0.815481
vn -0.062652 0.987354 0.145626
vn -0.153997 0.977418 0.144704
vn -0.179172 -0.982728 -0.046302
vn -0.152185 -0.987747 -0.034590
vn -0.124550 -0.991363 -0.041075
vn -0.148502 -0.987412 -0.054454
vn 0.010489 0.998601 0.051832
vn -0.150545 -0.981810 0.115694
vn -0.146635 -0.982185 0.117517
vn 0.099282 -0.990640 -0.093683
vn 0.109563 -0.989962 -0.089281
vn -0.200042 -0.979324 -0.030130
vn -0.198341 -0.979784 -0.026161
vn -0.105061 0.994429 0.008566
vn -0.173441 0.981268 0.083855
vn -0.060246 0.998157 0.007292
vn 0.116480 -0.989991 -0.079691
vn 0.085363 -0.996091 -0.022692
vn -0.417429 -0.782441 0.462103
vn 0.115895 -0.992074 -0.048561
vn 0.104935 -0.992222 -0.066972
vn -0.414131 0.858286 0.303053
vn -0.108310 -0.982411 0.152111
vn -0.126568 -0.984315 0.122899
vn -0.116736 0.990952 0.066227
vn -0.075022 0.995766 0.053126
vn -0.033108 0.999444 0.003927
vn -0.463299 -0.784570 0.412072
vn 0.085725 -0.994437 -0.061207
vn 0.047234 -0.997114 -0.059428
vn -0.024894 0.966184 0.256649
vn -0.300821 -0.242113 0.922436
vn -0.103798 -0.993627 -0.043954
vn 0.101953 0.993067 -0.058509
vn -0.179128 -0.982854 -0.043707
vn -0.199327 -0.979295 -0.035346
vn -0.497001 -0.420163 -0.759245
vn 0.289427 0.836176 -0.465877
vn 0.251749 0.807891 -0.532856
s 1
g polySurface6 polySurface5 polySurface2 BirdRetop:polySurface1
usemtl lambert2SG
f 8/1/1 73/2/2 7/3/3 79/4/4
f 70/5/5 10/6/6 105/7/7 4/8/8
f 11/9/9 71/10/10 25/11/11 102/12/12
f 13/13/13 90/14/14 12/15/15 112/16/16
f 9/17/17 78/18/18 14/19/19 76/20/20
f 15/21/21 74/22/22 8/1/1 66/23/23
f 17/24/24 92/25/25 16/26/26 65/27/27
f 19/28/28 111/29/29 18/30/30 71/31/10
f 75/32/31 21/33/32 84/34/33 20/35/34
f 122/36/35 22/37/36 83/38/37 121/39/38
f 88/40/39 23/41/40 112/42/16 19/43/28
f 14/44/19 78/45/18 24/46/41 107/47/42
f 72/48/43 26/49/44 102/12/12 25/11/11
f 108/50/45 28/51/46 98/52/47 27/53/48
f 134/54/49 121/39/38 83/38/37 27/53/48
f 68/55/50 2/56/51 117/57/52 24/46/41
f 115/58/53 30/59/54 101/60/55 29/61/56
f 3/62/57 91/63/58 31/64/59 79/4/4
f 110/65/60 33/66/61 81/67/62 32/68/63
f 26/49/44 91/63/58 34/69/64 102/12/12
f 63/70/65 36/71/66 113/72/67 35/73/68
f 15/74/21 65/75/27 37/76/69 74/77/22
f 77/78/70 9/79/17 108/50/45 1/80/71
f 118/81/72 38/82/73 95/83/74 10/84/6
f 92/85/25 17/86/24 66/23/23 31/64/59
f 123/87/75 117/57/52 2/56/51 122/88/35
f 14/44/19 106/89/76 39/90/77 90/14/14
f 5/91/78 80/92/79 40/93/80 93/94/81
f 73/95/2 41/96/82 105/7/7 7/97/3
f 43/98/83 114/99/84 42/100/85 84/34/33
f 109/101/86 42/100/85 62/102/87 28/51/46
f 18/30/30 111/29/29 44/103/88 89/104/89
f 109/101/86 9/79/17 76/105/20 20/35/34
f 97/106/90 131/107/91 132/108/92 45/109/93
f 6/110/94 94/111/95 46/112/96 67/113/97
f 126/114/98 127/115/99 116/116/100 47/117/101
f 47/117/101 116/116/100 29/61/56 101/60/55
f 63/70/65 35/73/68 97/106/90 48/118/102
f 62/102/87 48/118/102 97/106/90 45/109/93
f 116/116/100 127/115/99 128/119/103 49/120/104
f 120/121/105 16/122/26 72/123/43 50/124/106
f 115/58/53 33/66/61 110/65/60 30/59/54
f 123/87/75 124/125/107 51/126/108 117/57/52
f 41/96/82 73/95/2 37/76/69 120/121/105
f 11/9/9 102/12/12 34/69/64 103/127/109
f 96/128/110 52/129/111 103/127/109 38/82/73
f 39/90/77 106/89/76 30/59/54 110/65/60
f 120/121/105 50/124/106 104/130/112 41/96/82
f 53/131/113 81/67/62 5/132/78 119/133/114
f 69/134/115 4/8/8 104/130/112 54/135/116
f 45/109/93 98/52/47 28/51/46 62/102/87
f 38/82/73 118/81/72 55/136/117 96/128/110
f 56/137/118 64/138/119 36/139/66 94/140/95
f 105/141/7 10/84/6 95/83/74 3/62/57
f 57/142/120 85/143/121 21/33/32 87/144/122
f 58/145/123 119/146/114 55/136/117 118/81/72
f 36/71/66 63/70/65 46/112/96 94/111/95
f 86/147/124 44/103/88 99/148/125 32/68/63
f 130/149/126 35/73/68 113/72/67 129/150/127
f 54/135/116 89/104/89 44/103/88 86/147/124
f 19/43/28 71/10/10 11/9/9 88/40/39
f 67/113/97 46/112/96 114/99/84 43/98/83
f 101/60/55 30/59/54 106/89/76 59/151/128
f 46/112/96 63/70/65 48/118/102 114/99/84
f 56/137/118 115/58/53 29/61/56 64/138/119
f 132/108/92 133/152/129 98/52/47 45/109/93
f 100/153/130 51/126/108 124/125/107 125/154/131
f 38/82/73 103/127/109 34/69/64 95/83/74
f 93/94/81 55/136/117 119/146/114 5/91/78
f 65/75/27 16/122/26 120/121/105 37/76/69
f 51/126/108 100/153/130 59/151/128 107/47/42
f 119/133/114 58/155/123 69/134/115 53/131/113
f 58/145/123 118/81/72 10/84/6 70/156/5
f 107/47/42 24/46/41 117/57/52 51/126/108
f 104/130/112 50/124/106 89/104/89 54/135/116
f 108/50/45 27/53/48 83/38/37 1/80/71
f 53/131/113 69/134/115 54/135/116 86/147/124
f 67/113/97 43/98/83 85/143/121 40/93/80
f 116/116/100 49/120/104 64/138/119 29/61/56
f 26/49/44 72/48/43 16/157/26 92/85/25
f 68/55/50 24/46/41 78/45/18 60/158/132
f 80/159/79 33/66/61 115/58/53 56/137/118
f 129/160/127 113/161/67 49/120/104 128/119/103
f 114/99/84 48/118/102 62/102/87 42/100/85
f 20/35/34 84/34/33 42/100/85 109/101/86
f 82/162/133 22/163/36 122/164/35 2/165/51
f 125/154/131 126/114/98 47/117/101 100/153/130
f 36/139/66 64/138/119 49/120/104 113/161/67
f 19/28/28 112/16/16 12/15/15 111/29/29
f 13/166/13 112/42/16 23/41/40 75/32/31
f 111/29/29 12/15/15 99/148/125 44/103/88
f 99/148/125 39/90/77 110/65/60 32/68/63
f 9/79/17 109/101/86 28/51/46 108/50/45
f 14/44/19 107/47/42 59/151/128 106/89/76
f 52/129/111 96/128/110 57/142/120 87/144/122
f 104/130/112 4/8/8 105/7/7 41/96/82
f 61/167/134 77/78/70 1/80/71 82/168/133
f 88/40/39 11/9/9 103/127/109 52/129/111
f 101/60/55 59/151/128 100/153/130 47/117/101
f 12/15/15 90/14/14 39/90/77 99/148/125
f 98/52/47 133/152/129 134/54/49 27/53/48
f 35/73/68 130/149/126 131/107/91 97/106/90
f 55/136/117 93/94/81 57/142/120 96/128/110
f 77/78/70 61/167/134 68/169/50 60/170/132
f 3/62/57 95/83/74 34/69/64 91/63/58
f 56/137/118 94/140/95 6/171/94 80/159/79
f 93/94/81 40/93/80 85/143/121 57/142/120
f 92/85/25 31/64/59 91/63/58 26/49/44
f 75/32/31 23/41/40 87/144/122 21/33/32
f 90/14/14 13/13/13 76/172/20 14/44/19
f 89/104/89 50/124/106 72/123/43 18/30/30
f 23/41/40 88/40/39 52/129/111 87/144/122
f 32/68/63 81/67/62 53/131/113 86/147/124
f 21/33/32 85/143/121 43/98/83 84/34/33
f 83/38/37 22/37/36 82/168/133 1/80/71
f 79/4/4 7/3/3 105/141/7 3/62/57
f 5/132/78 81/67/62 33/66/61 80/159/79
f 79/4/4 31/64/59 66/23/23 8/1/1
f 78/173/18 9/79/17 77/78/70 60/170/132
f 20/35/34 76/105/20 13/166/13 75/32/31
f 74/77/22 37/76/69 73/95/2 8/174/1
f 18/30/30 72/123/43 25/175/11 71/31/10
f 58/155/123 70/5/5 4/8/8 69/134/115
f 2/56/51 68/55/50 61/176/134 82/177/133
f 80/92/79 6/110/94 67/113/97 40/93/80
f 65/27/27 15/178/21 66/179/23 17/24/24
