# This file uses centimeters as units for non-parametric coordinates.

mtllib Ala_3.mtl
g default
v 2.047184 2.396567 1.288028
v 1.400252 2.357041 0.044759
v 1.652592 2.332614 0.069826
v 1.280402 2.402470 0.312603
v 2.150539 2.611557 1.005250
v 1.787007 2.600907 0.895149
v 0.573703 2.380189 0.736418
v 1.017548 1.927976 0.673640
v 2.292431 2.536412 1.366152
v 1.980189 2.580701 1.291156
v 0.710725 2.522844 1.289158
v 0.935711 2.486667 0.932617
v 1.045351 2.256435 0.213749
v 0.816928 2.283801 0.452040
v 0.940995 1.984478 0.308132
v 1.664103 2.482148 0.082443
v 1.485748 2.563857 1.497337
v 1.795411 2.472972 1.482602
v 2.260253 2.391645 1.014883
v 1.422189 2.154708 0.593490
v 1.177187 2.068895 0.450755
v 1.047996 1.983990 1.086738
v 1.130902 2.571725 1.418347
v 0.934809 2.498905 1.752977
v 1.034974 2.159139 1.475730
v 1.290100 2.163505 1.242355
v 1.977926 2.398730 0.112635
v 1.809922 2.326328 0.443073
v 1.276126 2.384155 1.585366
v 1.538682 2.319122 1.387166
v 1.250176 2.067884 0.841038
v 1.230626 2.263810 0.210181
v 1.542811 2.258839 0.335920
v 1.114546 2.443828 0.601592
v 1.499374 2.193095 0.995970
v 1.767231 2.306176 1.150023
v 1.976341 2.347324 0.855680
v 1.909453 2.589478 0.537558
v 1.440132 2.539722 0.750403
v 1.669176 2.255371 0.730632
v 1.560616 2.511624 0.411782
v 2.143351 2.391881 0.533397
v 1.305206 2.563255 1.089325
v 1.641147 2.596127 1.209776
v 1.670157 2.566925 0.650384
v 1.203358 2.511203 0.842062
v 2.271789 2.418853 1.236091
v 1.471035 2.444287 0.201947
v 1.558351 2.390040 -0.081990
v 1.477446 2.293470 0.165983
v 1.240118 2.321527 0.156689
v 1.893231 2.344072 0.638297
v 2.220860 2.394754 0.765058
v 1.849223 2.388574 -0.052712
v 1.728949 2.573140 1.388984
v 2.045665 2.507394 1.427802
v 1.892959 2.604493 1.110270
v 2.241830 2.591202 1.195353
v 1.049229 2.054624 1.286846
v 1.111673 2.139846 0.299296
v 1.002030 1.931696 0.472700
v 1.272536 2.103158 1.047353
v 2.038071 2.613871 0.783716
v 1.398210 2.585204 1.308929
v 1.548009 2.584146 0.994044
v 1.062224 2.346262 0.389728
v 2.042423 2.391772 0.337221
v 1.607635 2.247557 0.527475
v 1.228953 2.547023 1.619320
v 1.536350 2.435807 1.535718
v 2.013678 2.353664 1.089832
v 1.801169 2.363062 1.334199
v 1.342546 2.475783 0.503887
v 1.465375 2.161292 0.794555
v 1.032418 2.538498 1.187295
v 0.857492 2.404510 0.681445
v 1.363173 2.181540 0.406554
v 1.732442 2.318979 0.250696
v 1.734512 2.278644 0.938335
v 1.783050 2.544057 0.296207
v 0.550845 2.271193 0.489744
v 0.806687 2.558541 1.551702
v 1.226799 2.047596 0.640476
v 1.033393 1.947495 0.878041
v 0.997122 2.302685 1.642341
v 1.533834 2.243592 1.197342
v 1.279622 2.256922 1.431817
v 0.630038 2.468337 1.009740
v 0.286368 2.369344 0.767938
v 0.315125 2.456935 1.054716
v 0.351064 2.523716 1.373582
v 0.396004 2.569032 1.752279
v 0.605449 2.399853 1.922367
v 0.745777 2.177440 1.729019
v 0.822334 2.010980 1.546216
v 0.862383 1.889028 1.349553
v 0.866784 1.811975 1.135785
v 0.861218 1.767047 0.921056
v 0.856637 1.743511 0.694421
v 0.854153 1.746923 0.476697
v 0.809168 1.801247 0.293416
v 0.708206 1.906517 0.160068
v 0.809717 2.137382 0.253627
v 0.558083 2.158513 0.250955
v 0.288323 2.169221 0.259751
v 0.279273 2.271011 0.509527
v 2.522900 2.604101 1.102335
v 2.428630 2.619865 0.886945
v 2.525585 2.558603 1.307571
v 2.401275 2.430253 1.204497
v 2.516620 2.428864 0.934319
v 2.474663 2.438273 0.667936
v 2.385895 2.436568 0.436676
v 2.281042 2.426196 0.232567
v 2.179786 2.427894 0.032135
v 2.073994 2.431974 -0.190266
v 1.942971 2.468031 -0.444176
v 1.731148 2.430235 -0.230841
v 1.874291 2.517817 -0.046780
v 2.015044 2.570559 0.175793
v 2.155075 2.606066 0.416149
v 2.294441 2.622778 0.663249
vt 0.602212 0.578261
vt 0.593534 0.590185
vt 0.611489 0.605470
vt 0.622082 0.590508
vt 0.629637 0.813600
vt 0.633820 0.798387
vt 0.653618 0.809184
vt 0.646267 0.824521
vt 0.686432 0.741545
vt 0.697435 0.720555
vt 0.724186 0.730802
vt 0.712505 0.752418
vt 0.530589 0.753958
vt 0.533575 0.725975
vt 0.566279 0.730364
vt 0.560429 0.757033
vt 0.695944 0.190654
vt 0.718576 0.188334
vt 0.720652 0.206521
vt 0.700240 0.208445
vt 0.733666 0.712253
vt 0.706494 0.702905
vt 0.713294 0.689572
vt 0.738921 0.695587
vt 0.762856 0.721329
vt 0.753066 0.742345
vt 0.598024 0.737889
vt 0.574659 0.703100
vt 0.608067 0.713039
vt 0.611162 0.790861
vt 0.609410 0.808033
vt 0.584939 0.804141
vt 0.585688 0.784781
vt 0.758621 0.194026
vt 0.771937 0.204405
vt 0.762594 0.227167
vt 0.757151 0.212092
vt 0.673669 0.820844
vt 0.695497 0.833453
vt 0.680631 0.851413
vt 0.662686 0.836889
vt 0.687305 0.684225
vt 0.680403 0.693360
vt 0.655146 0.682787
vt 0.660401 0.679042
vt 0.706272 0.479207
vt 0.691601 0.474334
vt 0.690402 0.497619
vt 0.719458 0.509174
vt 0.541974 0.657911
vt 0.584625 0.677482
vt 0.537307 0.694862
vt 0.558807 0.804402
vt 0.530792 0.803544
vt 0.529852 0.779172
vt 0.558055 0.781102
vt 0.686065 0.523605
vt 0.714838 0.536883
vt 0.589161 0.551441
vt 0.595750 0.532345
vt 0.573612 0.525065
vt 0.568089 0.544567
vt 0.679400 0.212044
vt 0.674502 0.195084
vt 0.597930 0.657843
vt 0.628478 0.670885
vt 0.618295 0.690495
vt 0.723963 0.218315
vt 0.740717 0.206888
vt 0.742909 0.220415
vt 0.580485 0.462087
vt 0.579208 0.441904
vt 0.551496 0.434368
vt 0.553201 0.454534
vt 0.639709 0.552846
vt 0.631033 0.572301
vt 0.658885 0.589815
vt 0.666076 0.566797
vt 0.608551 0.449688
vt 0.608215 0.433932
vt 0.578737 0.425605
vt 0.646055 0.701171
vt 0.549912 0.519085
vt 0.576161 0.504106
vt 0.551607 0.497630
vt 0.849048 0.408405
vt 0.866061 0.374265
vt 0.892714 0.382729
vt 0.879259 0.427466
vt 0.644398 0.605802
vt 0.669905 0.623018
vt 0.681771 0.600720
vt 0.638286 0.458394
vt 0.637563 0.442613
vt 0.609528 0.561040
vt 0.574254 0.570669
vt 0.589901 0.762398
vt 0.616596 0.770189
vt 0.634534 0.477493
vt 0.608094 0.469729
vt 0.604291 0.490643
vt 0.630934 0.499520
vt 0.662457 0.486774
vt 0.658345 0.511125
vt 0.547131 0.416281
vt 0.674297 0.765428
vt 0.650409 0.755669
vt 0.661612 0.731895
vt 0.739130 0.764173
vt 0.724657 0.788283
vt 0.699148 0.776437
vt 0.640274 0.779723
vt 0.625819 0.746725
vt 0.600541 0.511567
vt 0.623639 0.520740
vt 0.740318 0.188670
vt 0.563725 0.641315
vt 0.773153 0.393925
vt 0.752384 0.411756
vt 0.736213 0.379749
vt 0.752049 0.370741
vt 0.662921 0.788710
vt 0.686021 0.799986
vt 0.616772 0.541523
vt 0.640555 0.229312
vt 0.623917 0.243465
vt 0.615261 0.231117
vt 0.633516 0.214704
vt 0.578592 0.482526
vt 0.710114 0.811736
vt 0.584939 0.804141
vt 0.677404 0.547218
vt 0.649044 0.533160
vt 0.877127 0.336367
vt 0.899250 0.342774
vt 0.693134 0.580693
vt 0.575355 0.576444
vt 0.560747 0.559830
vt 0.553282 0.568104
vt 0.553158 0.475707
vt 0.636397 0.722598
vt 0.671284 0.710846
vt 0.666154 0.466185
vt 0.631120 0.623269
vt 0.693874 0.460807
vt 0.720292 0.469761
vt 0.665914 0.451368
vt 0.884143 0.301020
vt 0.901536 0.307893
vt 0.704903 0.560320
vt 0.659416 0.219008
vt 0.653155 0.202681
vt 0.758034 0.227410
vt 0.763134 0.701303
vt 0.631120 0.623269
vt 0.655198 0.648355
vn 0.073183 -0.934568 -0.348176
vn -0.544850 0.297403 -0.784021
vn -0.557021 0.171712 -0.812553
vn 0.103572 -0.964326 -0.243614
vn -0.452847 0.486104 -0.747417
vn -0.328890 0.896392 -0.297176
vn -0.319285 0.917273 -0.238051
vn -0.082369 0.995741 -0.041415
vn -0.017293 0.998290 0.055841
vn -0.012937 0.998246 0.057768
vn -0.057812 0.998144 -0.019127
vn -0.063391 0.942350 -0.328571
vn -0.060775 0.970342 -0.233971
vn -0.085575 0.970579 -0.225062
vn -0.095545 0.937464 -0.334713
vn 0.728310 -0.682003 0.066606
vn 0.752886 -0.658141 -0.003677
vn 0.649932 -0.759602 -0.024367
vn 0.621566 -0.780236 0.069917
vn 0.012203 0.981168 0.192772
vn 0.039326 0.960960 0.273877
vn 0.268291 0.108782 0.957176
vn 0.222691 0.423351 0.878170
vn 0.001682 0.987561 0.157230
vn -0.012660 0.998299 0.056915
vn -0.137067 0.969867 -0.201419
vn -0.060917 0.987919 -0.142495
vn -0.104740 0.986568 -0.125351
vn -0.334071 0.860946 -0.383625
vn -0.284757 0.470025 -0.835458
vn 0.033947 0.530926 -0.846738
vn -0.199393 0.871662 -0.447714
vn 0.684231 -0.341979 -0.644111
vn 0.557351 -0.098498 -0.824414
vn 0.538105 -0.437774 -0.720276
vn -0.288380 0.937838 -0.193122
vn -0.267439 0.948336 -0.170692
vn -0.197036 -0.840375 -0.504923
vn 0.293107 -0.148388 0.944494
vn 0.076110 0.923617 0.375684
vn 0.124718 0.853261 0.506351
vn 0.314511 -0.331736 0.889401
vn 0.190191 -0.924713 0.329748
vn 0.197186 -0.912541 0.358310
vn 0.155018 -0.987458 0.029936
vn 0.143029 -0.989634 -0.012953
vn 0.036815 0.989712 0.138256
vn 0.004256 0.994825 0.101511
vn -0.038400 0.988326 -0.147437
vn -0.011858 0.889657 -0.456476
vn -0.003422 0.915612 -0.402049
vn -0.030037 0.920979 -0.388453
vn -0.053496 0.904784 -0.422498
vn 0.157116 -0.986726 -0.041076
vn 0.149139 -0.987727 -0.046406
vn 0.317903 -0.885663 -0.338436
vn 0.413721 -0.901401 -0.127714
vn 0.480560 -0.873071 -0.082522
vn 0.479058 -0.805314 -0.349245
vn 0.601268 -0.778269 0.181035
vn 0.706962 -0.685490 0.174092
vn 0.322167 0.536192 0.780197
vn 0.192950 0.714766 0.672220
vn -0.051728 0.998219 0.029708
vn 0.667094 -0.698298 -0.259551
vn 0.392920 -0.858482 0.329579
vn 0.346941 -0.776813 0.525541
vn 0.497359 -0.663888 0.558468
vn 0.564560 -0.742927 0.359627
vn 0.269034 -0.959998 -0.077620
vn 0.232391 -0.964061 -0.128765
vn 0.174010 -0.980984 -0.085971
vn 0.184052 -0.980885 -0.063161
vn 0.275834 -0.833113 0.479415
vn 0.349877 -0.445677 0.823989
vn -0.048758 0.998565 0.022154
vn 0.456511 -0.887727 0.059480
vn 0.508700 -0.417852 0.752744
vn 0.453820 -0.449164 0.769610
vn 0.307973 0.616173 0.724902
vn 0.099354 -0.979557 -0.174921
vn 0.071411 -0.987369 -0.141431
vn 0.124622 -0.990036 -0.065557
vn 0.236056 -0.872713 0.427375
vn 0.232985 -0.945432 -0.227766
vn 0.135978 -0.808087 -0.573154
vn -0.178657 0.930126 -0.320855
vn -0.238029 0.933541 -0.268036
vn 0.258709 -0.951473 0.166638
vn 0.317822 -0.912802 0.256478
vn 0.370188 -0.921777 0.115269
vn 0.309678 -0.950247 0.033623
vn 0.194988 -0.976814 0.088401
vn 0.215677 -0.976228 -0.021484
vn -0.151670 0.982584 -0.107352
vn -0.170796 0.975373 -0.139561
vn -0.107444 0.991630 -0.071595
vn -0.046030 0.998898 -0.009194
vn -0.101414 0.992653 -0.065998
vn -0.119621 0.989664 -0.079098
vn -0.241820 0.947291 -0.210148
vn -0.169297 0.970630 -0.170926
vn 0.408100 -0.912841 0.013301
vn 0.358231 -0.932883 -0.037423
vn 0.765172 -0.610818 -0.203503
vn 0.318688 -0.639265 -0.699841
vn -0.223795 0.961500 -0.159478
vn -0.189972 0.973924 -0.124031
vn 0.348746 -0.930533 -0.111738
vn 0.586487 -0.577991 0.567415
vn 0.432588 -0.885434 0.169923
vn -0.168401 0.979737 -0.108424
vn 0.167845 -0.984623 -0.048433
vn 0.250693 -0.966649 -0.052371
vn 0.130189 -0.989923 -0.055715
vn -0.120219 0.987506 -0.101877
vn -0.031368 0.998671 0.040891
vn 0.211110 -0.895042 0.392851
vn 0.105972 0.818243 0.565021
vn 0.150512 -0.987489 -0.047033
vn 0.670106 -0.651352 0.355948
vn 0.027752 -0.980914 -0.192454
s 1
g polySurface9 polySurface3 BirdRetop:polySurface1
usemtl lambert2SG
f 50/1/1 2/2/2 49/3/3 3/4/4
f 51/5/5 4/6/6 48/7/7 2/8/2
f 6/9/8 57/10/9 5/11/10 63/12/11
f 89/13/12 90/14/13 88/15/14 7/16/15
f 98/17/16 99/18/17 8/19/18 84/20/19
f 58/21/20 10/22/21 56/23/22 9/24/23
f 58/21/20 107/25/24 108/26/25 5/11/10
f 12/27/26 88/15/14 11/28/27 75/29/28
f 66/30/29 13/31/30 103/32/31 14/33/32
f 101/34/33 102/35/34 103/36/31 15/37/35
f 16/38/36 119/39/37 118/40/38 49/41/3
f 18/42/39 55/43/40 17/44/41 70/45/42
f 110/46/43 47/47/44 19/48/45 111/49/46
f 92/50/47 82/51/48 11/28/27 91/52/49
f 104/53/50 105/54/51 106/55/52 81/56/53
f 53/57/54 112/58/55 111/49/46 19/48/45
f 77/59/56 20/60/57 83/61/58 21/62/59
f 22/63/60 97/64/61 98/17/16 84/20/19
f 81/56/53 106/55/52 89/13/12 7/16/15
f 82/51/48 24/65/62 69/66/63 23/67/64
f 83/68/58 8/19/18 61/69/65 21/70/59
f 26/71/66 87/72/67 25/73/68 59/74/69
f 28/75/70 78/76/71 27/77/72 67/78/73
f 30/79/74 70/80/42 29/81/75 87/72/67
f 69/66/63 17/44/41 64/82/76 23/67/64
f 8/83/18 83/61/58 31/84/77 84/85/19
f 94/86/78 85/87/79 24/88/62 93/89/80
f 27/77/72 54/90/81 116/91/82 115/92/83
f 30/79/74 72/93/84 18/94/39 70/80/42
f 33/95/85 77/59/56 32/96/86 50/1/1
f 66/30/29 14/33/32 76/97/87 34/98/88
f 36/99/89 86/100/90 35/101/91 79/102/92
f 53/57/54 19/48/45 71/103/93 37/104/94
f 85/105/79 25/73/68 87/72/67 29/81/75
f 45/106/95 39/107/96 65/108/97 6/9/8
f 122/109/98 121/110/99 38/111/100 63/12/11
f 73/112/101 34/98/88 46/113/102 39/107/96
f 74/114/103 40/115/104 79/102/92 35/101/91
f 101/34/33 15/37/35 61/69/65 100/116/105
f 82/51/48 92/50/47 93/117/80 24/65/62
f 15/118/35 103/119/31 13/120/30 60/121/106
f 4/6/6 66/30/29 34/98/88 73/112/101
f 41/122/107 45/106/95 38/111/100 80/123/108
f 78/76/71 28/75/70 68/124/109 33/95/85
f 86/100/90 36/99/89 72/93/84 30/79/74
f 25/125/68 85/126/79 94/127/78 95/128/110
f 35/101/91 86/100/90 26/71/66 62/129/111
f 41/122/107 48/7/7 4/6/6 73/112/101
f 11/28/27 88/15/14 90/14/13 91/52/49
f 88/15/14 12/27/26 76/97/87 7/16/15
f 38/111/100 121/110/99 120/130/112 80/123/108
f 104/53/50 81/56/53 14/33/32 103/131/31
f 30/79/74 87/72/67 26/71/66 86/100/90
f 28/75/70 67/78/73 42/132/113 52/133/114
f 50/1/1 3/4/4 78/76/71 33/95/85
f 85/87/79 29/134/75 69/135/63 24/88/62
f 37/104/94 79/102/92 40/115/104 52/133/114
f 115/92/83 114/136/115 67/78/73 27/77/72
f 51/137/5 32/96/86 60/138/106 13/139/30
f 31/84/77 62/129/111 22/140/60 84/85/19
f 65/108/97 39/107/96 46/113/102 43/141/116
f 43/141/116 75/29/28 23/67/64 64/82/76
f 55/43/40 44/142/117 64/82/76 17/44/41
f 20/60/57 74/114/103 31/84/77 83/61/58
f 48/7/7 41/122/107 80/123/108 16/38/36
f 82/51/48 23/67/64 75/29/28 11/28/27
f 76/97/87 14/33/32 81/56/53 7/16/15
f 119/39/37 16/38/36 80/123/108 120/130/112
f 71/103/93 36/99/89 79/102/92 37/104/94
f 6/9/8 63/12/11 38/111/100 45/106/95
f 54/90/81 27/77/72 78/76/71 3/4/4
f 33/95/85 68/124/109 20/60/57 77/59/56
f 21/62/59 60/138/106 32/96/86 77/59/56
f 1/143/118 71/103/93 19/48/45 47/47/44
f 99/18/17 100/116/105 61/69/65 8/19/18
f 34/98/88 76/97/87 12/27/26 46/113/102
f 68/124/109 40/115/104 74/114/103 20/60/57
f 12/27/26 75/29/28 43/141/116 46/113/102
f 44/142/117 57/10/9 6/9/8 65/108/97
f 31/84/77 74/114/103 35/101/91 62/129/111
f 41/122/107 73/112/101 39/107/96 45/106/95
f 55/43/40 10/22/21 57/10/9 44/142/117
f 54/90/81 3/4/4 49/3/3 118/144/38
f 9/145/23 47/47/44 110/46/43 109/146/119
f 72/93/84 1/143/118 56/147/22 18/94/39
f 1/143/118 72/93/84 36/99/89 71/103/93
f 70/148/42 17/149/41 69/135/63 29/134/75
f 68/124/109 28/75/70 52/133/114 40/115/104
f 67/78/73 114/136/115 113/150/120 42/132/113
f 56/147/22 1/143/118 47/47/44 9/145/23
f 51/5/5 13/31/30 66/30/29 4/6/6
f 44/142/117 65/108/97 43/141/116 64/82/76
f 108/26/25 122/109/98 63/12/11 5/11/10
f 62/129/111 26/71/66 59/74/69 22/140/60
f 97/64/61 22/63/60 59/151/69 96/152/121
f 112/58/55 53/57/54 42/132/113 113/150/120
f 21/70/59 61/69/65 15/37/35 60/153/106
f 9/24/23 109/154/119 107/25/24 58/21/20
f 59/151/69 25/125/68 95/128/110 96/152/121
f 58/21/20 5/11/10 57/10/9 10/22/21
f 56/23/22 10/22/21 55/43/40 18/42/39
f 116/91/82 54/90/81 118/155/38 117/156/122
f 42/132/113 53/57/54 37/104/94 52/133/114
f 32/96/86 51/137/5 2/2/2 50/1/1
f 16/38/36 49/41/3 2/8/2 48/7/7
