# This file uses centimeters as units for non-parametric coordinates.

mtllib Coche_4.mtl
g default
v 0.327100 0.096500 0.220800
v 0.336000 0.064600 0.220800
v 0.336000 0.064600 0.164100
v 0.327100 0.096500 0.164100
v 0.303500 0.119700 0.220800
v 0.303500 0.119700 0.164100
v 0.271500 0.128000 0.220800
v 0.271500 0.128000 0.164100
v 0.239600 0.119200 0.220800
v 0.239600 0.119200 0.164100
v 0.216300 0.095600 0.220800
v 0.216300 0.095600 0.164100
v 0.208000 0.063500 0.220800
v 0.208000 0.063500 0.164100
v 0.216900 0.031600 0.220800
v 0.216900 0.031600 0.164100
v 0.240500 0.008400 0.220800
v 0.240500 0.008400 0.164100
v 0.272500 0.000100 0.220800
v 0.272500 0.000100 0.164100
v 0.304500 0.008900 0.220800
v 0.304500 0.008900 0.164100
v 0.327700 0.032500 0.220800
v 0.327700 0.032500 0.164100
v 0.272000 0.064100 0.220800
vt 0.612700 0.884900
vt 0.609500 0.884900
vt 0.609500 0.849300
vt 0.612700 0.849300
vt 0.615900 0.884900
vt 0.615900 0.849300
vt 0.619100 0.884900
vt 0.619100 0.849300
vt 0.622300 0.884900
vt 0.622300 0.849300
vt 0.625400 0.884900
vt 0.625400 0.849300
vt 0.628600 0.884900
vt 0.628600 0.849300
vt 0.631800 0.884900
vt 0.631800 0.849300
vt 0.635000 0.884900
vt 0.635000 0.849300
vt 0.638200 0.884900
vt 0.638200 0.849300
vt 0.641400 0.884900
vt 0.641400 0.849300
vt 0.644500 0.884900
vt 0.644500 0.849300
vt 0.647700 0.884900
vt 0.647700 0.849300
vt 0.804000 0.993100
vt 0.803900 0.816000
vt 0.706900 0.846400
vt 0.638600 0.929600
vt 0.618500 0.993100
vt 0.803700 0.992700
vt 0.618300 0.992700
vt 0.706800 0.846400
vt 0.803600 0.816000
vt 0.997100 0.992700
vt 0.905400 0.846400
vt 0.974100 0.929600
vt 0.997100 0.993100
vt 0.638600 0.929600
vt 0.974100 0.929600
vt 0.905400 0.846400
vn 0.498463 0.294012 0.815532
vn 0.578708 0.005425 0.815517
vn 0.999956 0.009374 0.000000
vn 0.861331 0.508044 0.000000
vn 0.285153 0.503318 0.815695
vn 0.492934 0.870067 0.000000
vn -0.004524 0.578094 0.815958
vn -0.007824 0.999969 0.000000
vn -0.292759 0.498774 0.815792
vn -0.506201 0.862416 0.000000
vn -0.503633 0.285724 0.815301
vn -0.869776 0.493446 0.000000
vn -0.578807 -0.005426 0.815447
vn -0.999956 -0.009375 0.000000
vn -0.498114 -0.293806 0.815819
vn -0.861331 -0.508044 0.000000
vn -0.284954 -0.502966 0.815982
vn -0.492934 -0.870067 0.000000
vn 0.004516 -0.578075 0.815971
vn 0.007812 -0.999970 0.000000
vn 0.292674 -0.498630 0.815910
vn 0.506201 -0.862416 0.000000
vn 0.502965 -0.284441 0.816162
vn 0.870447 -0.492263 0.000000
vn -0.000000 0.000000 1.000000
s 1
g pCylinder2
usemtl lambert2SG
f 1/1/1 2/2/2 3/3/3 4/4/4
f 5/5/5 1/1/1 4/4/4 6/6/6
f 7/7/7 5/5/5 6/6/6 8/8/8
f 9/9/9 7/7/7 8/8/8 10/10/10
f 11/11/11 9/9/9 10/10/10 12/12/12
f 13/13/13 11/11/11 12/12/12 14/14/14
f 15/15/15 13/13/13 14/14/14 16/16/16
f 17/17/17 15/15/15 16/16/16 18/18/18
f 19/19/19 17/17/17 18/18/18 20/20/20
f 21/21/21 19/19/19 20/20/20 22/22/22
f 23/23/23 21/21/21 22/22/22 24/24/24
f 2/25/2 23/23/23 24/24/24 3/26/3
f 25/27/25 7/28/7 9/29/9 11/30/11 13/31/13
f 25/32/25 13/33/13 15/40/15 17/34/17 19/35/19
f 2/36/2 25/32/25 19/35/19 21/37/21 23/38/23
f 2/39/2 1/41/1 5/42/5 7/28/7 25/27/25
